<svg width="87" height="87" viewBox="0 0 87 87" fill="none" xmlns="http://www.w3.org/2000/svg">
<rect width="86.6099" height="86.6099" rx="43.305" fill="white"/>
<g clip-path="url(#clip0_2747_9096)">
<path d="M69.3156 59.4972H67.5772V27.3374C67.5772 26.4374 66.8475 25.7077 65.9475 25.7077H59.4286C58.5286 25.7077 57.7989 26.4374 57.7989 27.3374V59.4972H54.5395V38.2022C54.5395 37.3022 53.8098 36.5725 52.9098 36.5725H46.3909C45.4909 36.5725 44.7612 37.3022 44.7612 38.2022V59.4972H41.5017V44.1778C41.5017 43.2778 40.7721 42.5481 39.872 42.5481H33.3532C32.4531 42.5481 31.7234 43.2778 31.7234 44.1778V59.4972H28.464V48.0892C28.464 47.1891 27.7343 46.4594 26.8343 46.4594H20.3154C19.4154 46.4594 18.6857 47.1891 18.6857 48.0892V59.4972H16.9473C16.0473 59.4972 15.3176 60.2268 15.3176 61.1269C15.3176 62.0269 16.0473 62.7566 16.9473 62.7566H69.3156C70.2156 62.7566 70.9453 62.0269 70.9453 61.1269C70.9453 60.2268 70.2156 59.4972 69.3156 59.4972Z" fill="#939BE0"/>
</g>
<defs>
<clipPath id="clip0_2747_9096">
<rect width="55.6284" height="38.5705" fill="white" transform="translate(15.3177 24.1862)"/>
</clipPath>
</defs>
</svg>
