<svg width="50" height="50" viewBox="0 0 50 50" fill="none" xmlns="http://www.w3.org/2000/svg">
<rect width="49.5327" height="49.5327" rx="24.7664" fill="white"/>
<g clip-path="url(#clip0_2747_11141)">
<path d="M27.6836 18.2676C29.2272 16.7585 29.2552 14.2838 27.7461 12.7401C26.237 11.1965 23.7623 11.1685 22.2186 12.6776C20.675 14.1867 20.647 16.6614 22.1561 18.205C23.6652 19.7487 26.1399 19.7767 27.6836 18.2676Z" fill="#939BE0"/>
<path d="M13.0094 31.068C14.107 30.89 14.8526 29.856 14.6747 28.7583C14.4967 27.6607 13.4627 26.9151 12.365 27.093C11.2674 27.271 10.5218 28.305 10.6997 29.4027C10.8777 30.5003 11.9117 31.2459 13.0094 31.068Z" fill="#939BE0"/>
<path d="M19.609 38.3603C20.8621 38.0641 21.6378 36.8082 21.3416 35.5551C21.0454 34.3021 19.7894 33.5264 18.5364 33.8226C17.2833 34.1188 16.5076 35.3747 16.8038 36.6277C17.1 37.8808 18.356 38.6565 19.609 38.3603Z" fill="#939BE0"/>
<path d="M33.9273 38.4318C35.2502 38.4318 36.3227 37.3594 36.3227 36.0364C36.3227 34.7134 35.2502 33.6409 33.9273 33.6409C32.6043 33.6409 31.5318 34.7134 31.5318 36.0364C31.5318 37.3594 32.6043 38.4318 33.9273 38.4318Z" fill="#939BE0"/>
<path d="M38.7292 26.6669C39.5155 25.8807 39.5155 24.6059 38.7292 23.8196C37.943 23.0334 36.6682 23.0334 35.882 23.8196C35.0957 24.6059 35.0957 25.8807 35.882 26.6669C36.6682 27.4532 37.943 27.4532 38.7292 26.6669Z" fill="#939BE0"/>
<path d="M18.2136 26.95C18.1182 26.8455 18.0409 26.7273 17.9727 26.6045C17.8909 26.4545 17.8227 26.3045 17.7727 26.1545C17.3273 26.3773 16.9318 26.5682 16.5409 26.7545C16.0909 26.9682 15.6318 27.1864 15.1091 27.45C15.2818 27.7 15.4091 27.9773 15.4954 28.2773C16.0227 28.0091 16.4818 27.7864 16.9318 27.5727C17.3363 27.3818 17.75 27.1818 18.2136 26.95Z" fill="#939BE0"/>
<path d="M21.1318 27.8046C20.1591 30.1864 19.9727 30.6273 18.9727 32.8591C19.0045 32.8546 19.0364 32.8546 19.0682 32.8546C19.3636 32.8546 19.65 32.8955 19.9182 32.9727C20.8636 30.8682 21.0545 30.4137 22.1 27.85C21.8273 27.8364 21.55 27.8227 21.2773 27.8091C21.2273 27.8091 21.1818 27.8046 21.1318 27.8046Z" fill="#939BE0"/>
<path d="M33.2318 32.8091L30.4409 27.6818C30.1864 27.7955 29.8864 27.8818 29.5364 27.9227L32.3682 33.1227C32.6364 32.9818 32.9273 32.8727 33.2318 32.8091Z" fill="#939BE0"/>
<path d="M34.4182 25.6409C34.3954 25.5091 34.3863 25.3773 34.3863 25.2409C34.3863 25.0682 34.4 24.8955 34.4318 24.7319C33.5909 24.6728 33.0863 24.6409 32.6909 24.6228C32.45 24.6137 32.25 24.6046 32.0363 24.6C32.0636 24.9182 32.0591 25.2228 32.0227 25.5091C32.5773 25.5228 33.0545 25.55 34.4182 25.6409Z" fill="#939BE0"/>
<path d="M30.6273 22.9364C29.9182 21.4136 28.5773 20.3636 27.0318 19.8182C26.4 20.1227 25.7 20.2955 24.9546 20.2955H24.9182C24.0818 20.2909 23.2818 20.0682 22.5727 19.6636C22.25 19.7591 21.9318 19.8682 21.6318 20.0091C20.0955 20.7318 19.0818 22.3455 18.6818 23.9545C18.5 24.6864 18.3773 25.4636 18.7637 26.1591C18.9137 26.4227 19.1136 26.5955 19.35 26.7C19.9318 26.9682 20.7136 26.8636 21.3227 26.9C23.8818 27.0409 26.45 27.0955 29.0137 27.0545C31.4455 27.0182 31.5 24.8091 30.6273 22.9364Z" fill="#939BE0"/>
</g>
<defs>
<clipPath id="clip0_2747_11141">
<rect width="30" height="30" fill="white" transform="translate(10 10)"/>
</clipPath>
</defs>
</svg>
