<svg width="50" height="50" viewBox="0 0 50 50" fill="none" xmlns="http://www.w3.org/2000/svg">
<rect width="49.5327" height="49.5327" rx="24.7664" fill="white"/>
<path fill-rule="evenodd" clip-rule="evenodd" d="M29.3549 11.366L31.1041 12.3758L25.3273 15.7111L23.5781 14.7012L29.3549 11.366ZM13.8828 28.9055L18.2538 36.6287C18.4652 37.0021 18.3326 37.4806 17.9591 37.692L16.4723 38.5334C16.0989 38.7448 15.6204 38.6122 15.4091 38.2388L11.0381 30.5154C10.8268 30.142 10.9594 29.6635 11.3328 29.4522L12.8196 28.6108C13.193 28.3994 13.6715 28.5321 13.8828 28.9055ZM15.213 29.3524L18.2981 34.8036L18.9572 34.4231L25.9322 36.292C26.9355 36.5609 27.9032 36.4339 28.7877 35.8894L38.4039 29.9681C39.7734 29.125 39.1685 25.4344 35.0494 27.8333L29.7505 30.9196C29.4839 31.0749 29.2126 31.1892 28.935 31.2656C28.4951 31.9424 27.5629 32.2589 26.7937 32.0583C25.6503 31.7559 24.5087 31.4473 23.3663 31.1412C23.1165 31.0745 22.9682 30.8179 23.0349 30.5681C23.1016 30.3183 23.3583 30.17 23.608 30.2367C24.7432 30.5408 25.8773 30.8492 27.0134 31.1497C27.7584 31.2547 28.2873 30.89 28.4845 30.1539C28.6976 29.3585 28.2091 28.5739 27.4256 28.3198C25.3147 27.9391 23.2449 27.0564 21.9773 26.6453C20.8404 26.2766 19.7886 26.7015 18.7542 27.3007L15.213 29.3524ZM12.7932 29.9088C12.5031 29.9512 12.3024 30.2207 12.3448 30.5108C12.3872 30.8009 12.6567 31.0017 12.9468 30.9593C13.2369 30.9169 13.4376 30.6474 13.3952 30.3573C13.3528 30.0672 13.0833 29.8664 12.7932 29.9088ZM32.0394 12.9158L26.2625 16.251L27.1382 16.7566L32.915 13.4213L32.0394 12.9158ZM33.8502 13.9613L28.0734 17.2966L29.3549 18.0365L35.1317 14.7012L33.8502 13.9613ZM35.5994 15.5112L29.8237 18.8458V25.5163L35.5994 22.1817V15.5112ZM28.8862 25.5163V18.8458L27.6069 18.1072V20.136C27.6069 20.515 27.1821 20.7316 26.876 20.5246L25.0929 19.4951C24.9434 19.4085 24.8598 19.2517 24.8596 19.0905L24.8586 16.5205L23.1105 15.5113V22.1818L28.8862 25.5163ZM26.6694 17.5659V19.3253L25.796 18.8211V17.0617L26.6694 17.5659Z" fill="#939BE0"/>
</svg>
